<?xml version="1.0" standalone="no"?>
<!DOCTYPE svg PUBLIC "-//W3C//DTD SVG 20010904//EN"
 "http://www.w3.org/TR/2001/REC-SVG-20010904/DTD/svg10.dtd">
<svg version="1.0" xmlns="http://www.w3.org/2000/svg"
 width="512.000000pt" height="512.000000pt" viewBox="0 0 512.000000 512.000000"
 preserveAspectRatio="xMidYMid meet">

<g transform="translate(0.000000,512.000000) scale(0.100000,-0.100000)"
fill="#000000" stroke="none">
<path d="M1106 1458 c2 -18 22 -260 44 -538 22 -278 45 -530 51 -560 24 -122
115 -244 226 -303 106 -57 104 -57 1123 -57 587 0 959 4 1000 10 181 29 333
173 369 350 6 30 29 282 51 560 22 278 42 520 44 538 l5 33 -147 -3 -147 -3
-41 -495 c-52 -611 -49 -586 -76 -626 -46 -68 17 -65 -1062 -62 l-975 3 -31
30 c-18 17 -37 39 -43 50 -6 11 -31 263 -57 560 l-45 540 -147 3 -147 3 5 -33z"/>
<path d="M1710 1463 c0 -67 31 -412 40 -445 32 -115 196 -137 259 -35 26 42
26 59 4 310 l-16 197 -144 0 -143 0 0 -27z"/>
<path d="M2412 1258 c3 -213 5 -236 23 -268 57 -96 193 -96 250 0 18 32 20 55
23 268 l3 232 -151 0 -151 0 3 -232z"/>
<path d="M3107 1293 c-22 -251 -22 -268 4 -310 63 -102 227 -80 259 35 9 33
40 378 40 445 l0 27 -143 0 -144 0 -16 -197z"/>
</g>
</svg>
